# xmcd CD database file
#
# Track frame offsets:
#	180
#	13098
#	32260
#	48243
#	59440
#	68884
#	83674
#	100965
#	120712
#	135515
#
# Disc length: 2007 seconds
#
# Revision: 0
# Processed by: cddbd v1.4PL0 Copyright (c) Steve Scherf et al.
# Submitted via: CDex 1.50
#
DISCID=7b07d50a
DTITLE=Various Artist - Tempo Brésil 1
DYEAR=1900
DGENRE=Jazz
TTITLE0=Antonio Carlos Jobim Miucha - Samba do Aviao
TTITLE1=Baden Powell - Canto de Ossanha
TTITLE2=Joyce - Corcovado
TTITLE3=Gilberto Gil -Procissão
TTITLE4=Caetano Veloso - Samba em Paz
TTITLE5=Astrud Gilberto - The Girl from Ipanema
TTITLE6=Eduardo Filho - O que sera
TTITLE7=Joyce Maria Bethana - Taeede em Itapoan
TTITLE8=Milton Nascimento - Cancao do Sal
TTITLE9=Linda Morales - Toda Menine Baïana
EXTD=
EXTT0=
EXTT1=
EXTT2=
EXTT3=
EXTT4=
EXTT5=
EXTT6=
EXTT7=
EXTT8=
EXTT9=
PLAYORDER=
